<svg width="32" height="32" viewBox="0 0 32 32" fill="none" xmlns="http://www.w3.org/2000/svg">
<g clip-path="url(#clip0_9_86)">
<mask id="mask0_9_86" style="mask-type:luminance" maskUnits="userSpaceOnUse" x="0" y="0" width="32" height="32">
<path d="M32 0H0V32H32V0Z" fill="white"/>
</mask>
<g mask="url(#mask0_9_86)">
<path d="M27.5319 26.2021C27.8186 26.0298 28.1738 26.388 27.9513 26.6377C27.7463 26.8677 27.5334 27.0933 27.3128 27.314C21.0648 33.562 10.9335 33.562 4.68551 27.314C-1.56249 21.0646 -1.56249 10.9347 4.68551 4.6867C10.0034 -0.632554 18.135 -1.42328 24.2904 2.31125C24.576 2.48452 24.3432 2.93067 24.0188 2.85075C19.3573 1.70211 14.247 3.24485 11.0353 7.20626L10.932 7.33532C6.55976 12.8706 7.50191 20.9011 13.0372 25.2734C17.3239 28.6607 23.1101 28.8583 27.5319 26.2021Z" fill="white"/>
<path d="M31.9969 16.2967C31.8033 18.356 31.0346 20.3851 29.6565 22.1274C26.3789 26.277 20.733 27.4538 16.1577 25.2549C15.854 25.1089 16.0696 24.6414 16.4025 24.6946C19.6691 25.2167 23.1138 24.0038 25.3101 21.224L25.3846 21.1279C28.5065 17.0725 27.8239 11.2633 23.8488 8.03968L23.7541 7.96368C21.3794 6.08856 18.3843 5.53562 15.6571 6.20088C15.33 6.28067 15.0802 5.83553 15.3712 5.66613C19.1941 3.44061 24.1484 3.64113 27.8296 6.54974C29.3769 7.77296 30.5112 9.32599 31.211 11.0296C31.7674 12.7361 32.0298 14.5186 31.9969 16.2967Z" fill="white"/>
<path d="M24.0088 20.1965C21.6853 23.1384 17.6658 23.9522 14.4377 22.3454C14.1618 22.2081 14.3141 21.7902 14.6223 21.7873C16.4387 21.7701 18.2313 20.9607 19.4457 19.425C21.5738 16.732 21.1149 12.8228 18.4204 10.6948C17.0807 9.63691 15.4411 9.2184 13.8686 9.39653C13.5625 9.4312 13.3612 9.03611 13.6186 8.86669C16.3459 7.07102 20.0245 7.12824 22.7268 9.26219C26.0996 11.928 26.6746 16.8223 24.0088 20.1965Z" fill="white"/>
</g>
</g>
<defs>
<clipPath id="clip0_9_86">
<rect width="32" height="32" fill="white"/>
</clipPath>
</defs>
</svg>
