<svg xmlns="http://www.w3.org/2000/svg" width="129" height="28" viewBox="0 0 129 28" fill="none">
<g clip-path="url(#clip0_6180_10025)">
<g clip-path="url(#clip1_6180_10025)">
<path d="M24.2899 22.9265C24.5408 22.7758 24.8516 23.0892 24.6569 23.3077C24.4775 23.509 24.2913 23.7064 24.0982 23.8995C18.6312 29.3664 9.76628 29.3664 4.29928 23.8995C-1.16771 18.4312 -1.16771 9.56757 4.29928 4.10057C8.95249 -0.553774 16.0676 -1.24566 21.4536 2.02206C21.7035 2.17367 21.4998 2.56405 21.216 2.49412C17.1372 1.48906 12.6656 2.83895 9.85536 6.30519L9.76502 6.41812C5.93925 11.2615 6.76363 18.2882 11.607 22.1139C15.3579 25.0778 20.4208 25.2507 24.2899 22.9265Z" fill="#034C3C"/>
<path d="M28.1973 14.259C28.0279 16.0609 27.3553 17.8364 26.1495 19.3609C23.2816 22.9918 18.3414 24.0214 14.3381 22.0974C14.0723 21.9696 14.261 21.5606 14.5522 21.6071C17.4105 22.064 20.4246 21.0027 22.3463 18.5704L22.4116 18.4863C25.1432 14.9379 24.5459 9.85482 21.0677 7.03411L20.9849 6.96761C18.907 5.32688 16.2863 4.84306 13.9 5.42516C13.6138 5.49498 13.3952 5.10548 13.6498 4.95725C16.9949 3.00993 21.3299 3.18538 24.551 5.73041C25.9048 6.80073 26.8974 8.15963 27.5097 9.65029C27.9965 11.1435 28.2262 12.7031 28.1973 14.259Z" fill="#034C3C"/>
<path d="M21.2062 17.672C19.1731 20.2461 15.6561 20.9582 12.8315 19.5522C12.5901 19.4321 12.7234 19.0664 12.993 19.0639C14.5824 19.0489 16.1509 18.3406 17.2135 16.9969C19.0756 14.6405 18.6741 11.22 16.3164 9.35792C15.1441 8.4323 13.7095 8.0661 12.3336 8.22196C12.0657 8.2523 11.8896 7.90659 12.1148 7.75836C14.5012 6.18714 17.72 6.23721 20.0844 8.10442C23.0356 10.437 23.5388 14.7195 21.2062 17.672Z" fill="#034C3C"/>
</g>
<path d="M37.4762 14.7492C37.4762 11.835 39.7207 9.60522 42.6129 9.60522C44.4306 9.60522 46.0422 10.4957 47.0062 12.0411L45.8067 12.88C45.0046 11.6731 43.9301 11.0697 42.6129 11.0697C40.5597 11.0697 39.0952 12.6151 39.0952 14.7492C39.0952 16.8908 40.5891 18.4288 42.6496 18.4288C43.9743 18.4288 45.1076 17.8106 45.8877 16.6626L47.043 17.4648C46.1011 18.9955 44.4821 19.8933 42.6496 19.8933C39.7502 19.8933 37.4762 17.6708 37.4762 14.7492ZM48.879 19.7461V9.7524H55.8849V11.158H50.4244V13.9103H55.1122V15.3159H50.4244V18.3405H56.0394V19.7461H48.879ZM59.671 19.7461H58.1256V9.7524H59.671L65.757 17.3691V9.7524H67.3024V19.7461H65.7423L59.671 12.203V19.7461ZM68.9618 11.2021V9.7524H77.0862V11.2021H73.7967V19.7461H72.2586V11.2021H68.9618ZM78.7382 9.75976H83.0359C85.0965 9.75976 86.4359 10.9225 86.4359 12.7917C86.4359 14.1605 85.6484 15.1761 84.4121 15.6103L86.8332 19.7461H85.0376L82.7784 15.8237H80.2836V19.7461H78.7382V9.75976ZM82.9623 11.1506H80.2836V14.4475H82.9623C84.1913 14.4475 84.8242 13.7631 84.8242 12.7917C84.8242 11.7982 84.1913 11.1506 82.9623 11.1506ZM89.1328 19.7461H87.4844L91.6128 9.7524H93.2907L97.4192 19.7461H95.7708L94.976 17.6635H89.9276L89.1328 19.7461ZM90.3912 16.3756H94.5123L92.4518 11.4818L90.3912 16.3756ZM106.18 18.3405V19.7461H98.9387V9.7524H100.491V18.3405H106.18ZM109.422 9.7524V19.7461H107.876V9.7524H109.422ZM111.456 19.7461V18.5245L117.086 11.158H111.53V9.7524H119.102V10.9961L113.458 18.3405H119.176V19.7461H111.456ZM121.189 19.7461V9.7524H128.194V11.158H122.734V13.9103H127.422V15.3159H122.734V18.3405H128.349V19.7461H121.189Z" fill="#034C3C"/>
</g>
<defs>
<clipPath id="clip0_6180_10025">
<rect width="128.793" height="28" fill="white" transform="translate(0.199219)"/>
</clipPath>
<clipPath id="clip1_6180_10025">
<rect width="28" height="28" fill="white" transform="translate(0.199219)"/>
</clipPath>
</defs>
</svg>
